<svg width="152" height="27" viewBox="0 0 152 27" fill="none" xmlns="http://www.w3.org/2000/svg">
<path d="M30.814 12.098H29.068V20H26.512V12.098H25.378V10.028H26.512V9.524C26.512 8.3 26.86 7.4 27.556 6.824C28.252 6.248 29.302 5.978 30.706 6.014V8.138C30.094 8.126 29.668 8.228 29.428 8.444C29.188 8.66 29.068 9.05 29.068 9.614V10.028H30.814V12.098ZM34.9671 11.576C35.2911 11.048 35.7111 10.634 36.2271 10.334C36.7551 10.034 37.3551 9.884 38.0271 9.884V12.53H37.3611C36.5691 12.53 35.9691 12.716 35.5611 13.088C35.1651 13.46 34.9671 14.108 34.9671 15.032V20H32.4471V10.028H34.9671V11.576ZM41.0024 8.84C40.5584 8.84 40.1864 8.702 39.8864 8.426C39.5984 8.138 39.4544 7.784 39.4544 7.364C39.4544 6.944 39.5984 6.596 39.8864 6.32C40.1864 6.032 40.5584 5.888 41.0024 5.888C41.4464 5.888 41.8124 6.032 42.1004 6.32C42.4004 6.596 42.5504 6.944 42.5504 7.364C42.5504 7.784 42.4004 8.138 42.1004 8.426C41.8124 8.702 41.4464 8.84 41.0024 8.84ZM42.2444 10.028V20H39.7244V10.028H42.2444ZM47.2542 6.68V20H44.7342V6.68H47.2542ZM49.096 14.978C49.096 13.97 49.294 13.076 49.69 12.296C50.098 11.516 50.644 10.916 51.328 10.496C52.024 10.076 52.798 9.866 53.65 9.866C54.394 9.866 55.042 10.016 55.594 10.316C56.158 10.616 56.608 10.994 56.944 11.45V10.028H59.482V20H56.944V18.542C56.62 19.01 56.17 19.4 55.594 19.712C55.03 20.012 54.376 20.162 53.632 20.162C52.792 20.162 52.024 19.946 51.328 19.514C50.644 19.082 50.098 18.476 49.69 17.696C49.294 16.904 49.096 15.998 49.096 14.978ZM56.944 15.014C56.944 14.402 56.824 13.88 56.584 13.448C56.344 13.004 56.02 12.668 55.612 12.44C55.204 12.2 54.766 12.08 54.298 12.08C53.83 12.08 53.398 12.194 53.002 12.422C52.606 12.65 52.282 12.986 52.03 13.43C51.79 13.862 51.67 14.378 51.67 14.978C51.67 15.578 51.79 16.106 52.03 16.562C52.282 17.006 52.606 17.348 53.002 17.588C53.41 17.828 53.842 17.948 54.298 17.948C54.766 17.948 55.204 17.834 55.612 17.606C56.02 17.366 56.344 17.03 56.584 16.598C56.824 16.154 56.944 15.626 56.944 15.014ZM67.4692 9.884C68.6572 9.884 69.6172 10.262 70.3492 11.018C71.0812 11.762 71.4472 12.806 71.4472 14.15V20H68.9272V14.492C68.9272 13.7 68.7292 13.094 68.3332 12.674C67.9372 12.242 67.3972 12.026 66.7132 12.026C66.0172 12.026 65.4652 12.242 65.0572 12.674C64.6612 13.094 64.4632 13.7 64.4632 14.492V20H61.9432V10.028H64.4632V11.27C64.7992 10.838 65.2252 10.502 65.7412 10.262C66.2692 10.01 66.8452 9.884 67.4692 9.884ZM77.6596 20.162C76.8436 20.162 76.1116 20.018 75.4636 19.73C74.8156 19.43 74.2996 19.028 73.9156 18.524C73.5436 18.02 73.3396 17.462 73.3036 16.85H75.8416C75.8896 17.234 76.0756 17.552 76.3996 17.804C76.7356 18.056 77.1496 18.182 77.6416 18.182C78.1216 18.182 78.4936 18.086 78.7576 17.894C79.0336 17.702 79.1716 17.456 79.1716 17.156C79.1716 16.832 79.0036 16.592 78.6676 16.436C78.3436 16.268 77.8216 16.088 77.1016 15.896C76.3576 15.716 75.7456 15.53 75.2656 15.338C74.7976 15.146 74.3896 14.852 74.0416 14.456C73.7056 14.06 73.5376 13.526 73.5376 12.854C73.5376 12.302 73.6936 11.798 74.0056 11.342C74.3296 10.886 74.7856 10.526 75.3736 10.262C75.9736 9.998 76.6756 9.866 77.4796 9.866C78.6676 9.866 79.6156 10.166 80.3236 10.766C81.0316 11.354 81.4216 12.152 81.4936 13.16H79.0816C79.0456 12.764 78.8776 12.452 78.5776 12.224C78.2896 11.984 77.8996 11.864 77.4076 11.864C76.9516 11.864 76.5976 11.948 76.3456 12.116C76.1056 12.284 75.9856 12.518 75.9856 12.818C75.9856 13.154 76.1536 13.412 76.4896 13.592C76.8256 13.76 77.3476 13.934 78.0556 14.114C78.7756 14.294 79.3696 14.48 79.8376 14.672C80.3056 14.864 80.7076 15.164 81.0436 15.572C81.3916 15.968 81.5716 16.496 81.5836 17.156C81.5836 17.732 81.4216 18.248 81.0976 18.704C80.7856 19.16 80.3296 19.52 79.7296 19.784C79.1416 20.036 78.4516 20.162 77.6596 20.162ZM86.5862 12.098V16.922C86.5862 17.258 86.6642 17.504 86.8202 17.66C86.9882 17.804 87.2642 17.876 87.6482 17.876H88.8182V20H87.2342C85.1102 20 84.0482 18.968 84.0482 16.904V12.098H82.8602V10.028H84.0482V7.562H86.5862V10.028H88.8182V12.098H86.5862ZM91.9087 8.84C91.4647 8.84 91.0927 8.702 90.7927 8.426C90.5047 8.138 90.3607 7.784 90.3607 7.364C90.3607 6.944 90.5047 6.596 90.7927 6.32C91.0927 6.032 91.4647 5.888 91.9087 5.888C92.3527 5.888 92.7187 6.032 93.0067 6.32C93.3067 6.596 93.4567 6.944 93.4567 7.364C93.4567 7.784 93.3067 8.138 93.0067 8.426C92.7187 8.702 92.3527 8.84 91.9087 8.84ZM93.1507 10.028V20H90.6307V10.028H93.1507ZM108.024 9.884C109.248 9.884 110.232 10.262 110.976 11.018C111.732 11.762 112.11 12.806 112.11 14.15V20H109.59V14.492C109.59 13.712 109.392 13.118 108.996 12.71C108.6 12.29 108.06 12.08 107.376 12.08C106.692 12.08 106.146 12.29 105.738 12.71C105.342 13.118 105.144 13.712 105.144 14.492V20H102.624V14.492C102.624 13.712 102.426 13.118 102.03 12.71C101.634 12.29 101.094 12.08 100.41 12.08C99.7144 12.08 99.1624 12.29 98.7544 12.71C98.3584 13.118 98.1604 13.712 98.1604 14.492V20H95.6404V10.028H98.1604V11.234C98.4844 10.814 98.8984 10.484 99.4024 10.244C99.9184 10.004 100.482 9.884 101.094 9.884C101.874 9.884 102.57 10.052 103.182 10.388C103.794 10.712 104.268 11.18 104.604 11.792C104.928 11.216 105.396 10.754 106.008 10.406C106.632 10.058 107.304 9.884 108.024 9.884ZM126.886 9.884C128.11 9.884 129.094 10.262 129.838 11.018C130.594 11.762 130.972 12.806 130.972 14.15V20H128.452V14.492C128.452 13.712 128.254 13.118 127.858 12.71C127.462 12.29 126.922 12.08 126.238 12.08C125.554 12.08 125.008 12.29 124.6 12.71C124.204 13.118 124.006 13.712 124.006 14.492V20H121.486V14.492C121.486 13.712 121.288 13.118 120.892 12.71C120.496 12.29 119.956 12.08 119.272 12.08C118.576 12.08 118.024 12.29 117.616 12.71C117.22 13.118 117.022 13.712 117.022 14.492V20H114.502V10.028H117.022V11.234C117.346 10.814 117.76 10.484 118.264 10.244C118.78 10.004 119.344 9.884 119.956 9.884C120.736 9.884 121.432 10.052 122.044 10.388C122.656 10.712 123.13 11.18 123.466 11.792C123.79 11.216 124.258 10.754 124.87 10.406C125.494 10.058 126.166 9.884 126.886 9.884ZM132.715 14.978C132.715 13.97 132.913 13.076 133.309 12.296C133.717 11.516 134.263 10.916 134.947 10.496C135.643 10.076 136.417 9.866 137.269 9.866C138.013 9.866 138.661 10.016 139.213 10.316C139.777 10.616 140.227 10.994 140.563 11.45V10.028H143.101V20H140.563V18.542C140.239 19.01 139.789 19.4 139.213 19.712C138.649 20.012 137.995 20.162 137.251 20.162C136.411 20.162 135.643 19.946 134.947 19.514C134.263 19.082 133.717 18.476 133.309 17.696C132.913 16.904 132.715 15.998 132.715 14.978ZM140.563 15.014C140.563 14.402 140.443 13.88 140.203 13.448C139.963 13.004 139.639 12.668 139.231 12.44C138.823 12.2 138.385 12.08 137.917 12.08C137.449 12.08 137.017 12.194 136.621 12.422C136.225 12.65 135.901 12.986 135.649 13.43C135.409 13.862 135.289 14.378 135.289 14.978C135.289 15.578 135.409 16.106 135.649 16.562C135.901 17.006 136.225 17.348 136.621 17.588C137.029 17.828 137.461 17.948 137.917 17.948C138.385 17.948 138.823 17.834 139.231 17.606C139.639 17.366 139.963 17.03 140.203 16.598C140.443 16.154 140.563 15.626 140.563 15.014ZM148.082 11.576C148.406 11.048 148.826 10.634 149.342 10.334C149.87 10.034 150.47 9.884 151.142 9.884V12.53H150.476C149.684 12.53 149.084 12.716 148.676 13.088C148.28 13.46 148.082 14.108 148.082 15.032V20H145.562V10.028H148.082V11.576Z" fill="white"/>
<path d="M12.326 7.16915L12.4961 7.25607L12.7478 6.75021L12.5773 6.66376L12.326 7.16915Z" fill="white"/>
<path d="M14.6986 9.00689L14.8174 9.14844L15.3612 8.87009L15.241 8.72855L14.6986 9.00689Z" fill="white"/>
<path d="M6.27466 6.31417L6.72733 6.88368L6.88027 6.81481L6.42808 6.24719L6.27466 6.31417Z" fill="white"/>
<path d="M15.8007 14.1976L16.5131 14.5633L16.5716 14.4137L15.861 14.0504L15.8007 14.1976Z" fill="white"/>
<path d="M4.93373 8.45349L4.21839 8.08585L4.13574 8.22454L4.85393 8.59171L4.93373 8.45349Z" fill="white"/>
<path d="M10.7333 11.2355C10.7153 11.2013 10.692 11.1686 10.6645 11.1391C10.6369 11.1097 10.6056 11.0831 10.5714 11.0598C10.5367 11.037 10.4996 11.0175 10.4602 11.0028L9.82609 7.26982L9.54157 7.25177L10.1667 10.9895C10.132 11.0009 10.1006 11.0175 10.0736 11.0375C10.0465 11.0574 10.0242 11.0821 10.0061 11.1092C9.98854 11.1367 9.97619 11.1676 9.96906 11.2008C9.96241 11.2341 9.96194 11.2702 9.96859 11.3077C9.96907 11.3125 9.97001 11.3167 9.97096 11.321C9.97191 11.3253 9.97286 11.33 9.97429 11.3338C9.97571 11.3381 9.97714 11.3424 9.97856 11.3467C9.97999 11.3509 9.98142 11.3557 9.98284 11.3595L8.12562 12.3081L7.96508 12.1024L7.44543 12.8239L8.47332 12.7545L8.31229 12.5475L10.1671 11.5932C10.1866 11.606 10.207 11.6179 10.2279 11.6283C10.2484 11.6388 10.2702 11.6478 10.2925 11.6554C10.3144 11.663 10.3372 11.6692 10.3605 11.6739C10.3837 11.6787 10.407 11.6815 10.4308 11.6825C10.4859 11.6849 10.5372 11.6773 10.5818 11.6611C10.6269 11.645 10.6654 11.6207 10.6963 11.5899C10.7267 11.5595 10.7495 11.5219 10.7628 11.4801C10.7756 11.4388 10.7789 11.3923 10.7709 11.3429C10.7637 11.3063 10.7509 11.2702 10.7333 11.2355Z" fill="white"/>
<path d="M3.34912 10.8836L3.37762 11.1529L4.6145 11.2066L4.58362 10.9387L3.34912 10.8836Z" fill="white"/>
<path d="M4.80835 14.0651L4.93232 14.227L5.59921 13.8846L5.47666 13.724L4.80835 14.0651Z" fill="white"/>
<path d="M11.0939 16.5374L11.2853 17.6807L11.5945 17.685L11.4012 16.5427L11.0939 16.5374Z" fill="white"/>
<path d="M7.67822 16.5085L7.87059 16.6058L8.18741 15.9665L7.99599 15.8696L7.67822 16.5085Z" fill="white"/>
<path d="M8.38679 4C5.32784 4 2.44037 5.5062 1.49419 8.43547L1.49181 8.43452C0.420706 11.7604 -1.62176 15.3941 2.32067 19.5607C4.10094 21.4403 6.64547 22.6539 9.30495 22.7194L9.30115 22.7251C9.63459 22.7251 9.53722 22.7251 9.64457 22.7251V22.7242C11.298 22.7037 12.8935 22.225 14.1646 21.2351C14.9089 20.6542 14.9963 20.468 17.6686 17.1402L17.6672 17.1392C21.7193 12.0948 15.9306 4 8.38679 4ZM5.56961 16.0676C0.157561 11.5524 2.63132 4.63459 9.29117 5.13333C13.1785 5.4245 16.7357 8.28727 17.5299 11.6797C18.963 17.808 11.0957 20.6793 5.56961 16.0676Z" fill="white"/>
<path d="M9.70829 6.57211L9.54917 5.63637L9.26892 5.61642L9.42567 6.55311L9.70829 6.57211Z" fill="white"/>
<path d="M15.8015 11.4398L15.857 11.6944L16.9519 11.7419L16.8939 11.4882L15.8015 11.4398Z" fill="white"/>
<path d="M14.053 16.089L14.5584 16.7255L14.7066 16.6358L14.2012 16.0016L14.053 16.089Z" fill="white"/>
</svg>
